<svg width="20" height="20" viewBox="0 0 20 20" fill="none" xmlns="http://www.w3.org/2000/svg">
<path d="M14.031 2.8125H14.032C14.5393 2.81268 15.0423 2.90085 15.5183 3.07324L15.7205 3.15234C16.1883 3.34858 16.6177 3.62485 16.99 3.96777L17.1462 4.11914C17.9751 4.96296 18.4392 6.09841 18.4392 7.28125C18.4392 8.39021 18.0317 9.45783 17.2976 10.2822L17.1462 10.4434L9.99976 17.6797L2.85425 10.4434C2.0255 9.59956 1.56128 8.46398 1.56128 7.28125C1.56128 6.17217 1.96964 5.1047 2.70386 4.28027L2.85425 4.11914C3.21006 3.75737 3.62608 3.46082 4.08276 3.24219L4.28101 3.15332C4.81567 2.9293 5.38978 2.81348 5.96948 2.81348C6.47681 2.81351 6.97979 2.90197 7.45581 3.07422L7.65796 3.15332C8.12566 3.34934 8.55513 3.62513 8.92749 3.96777L9.08374 4.11914L9.08472 4.12012L9.77808 4.82031L10.0007 5.04395L10.2224 4.82031L10.9158 4.12012L10.9177 4.11914C11.273 3.75687 11.6878 3.4591 12.1443 3.24023L12.3425 3.15137C12.8104 2.95511 13.3086 2.8422 13.8142 2.81738L14.031 2.8125ZM14.031 3.4375C13.5322 3.43694 13.0382 3.53695 12.5789 3.73145C12.1767 3.9018 11.8082 4.14165 11.49 4.43945L11.3582 4.56836L10.0007 5.95215L8.63647 4.55664L8.6355 4.55566L8.50269 4.42676C8.22941 4.17482 7.91988 3.96536 7.58472 3.80469L7.41479 3.72852C6.95707 3.53652 6.46584 3.43753 5.96948 3.4375C5.53493 3.4375 5.10373 3.51247 4.69604 3.66016L4.52319 3.72852C4.12264 3.89659 3.75498 4.13299 3.43628 4.42676L3.30249 4.55566C2.58849 5.2806 2.18823 6.25787 2.18823 7.27539C2.18833 8.22923 2.54033 9.14719 3.17261 9.85547L3.30249 9.99414H3.30347L9.77808 16.5508L10.0007 16.7764L10.2224 16.5508L16.698 9.99414C17.412 9.26928 17.8122 8.29283 17.8123 7.27539C17.8123 6.32126 17.4604 5.40276 16.8279 4.69434L16.698 4.55566C16.3504 4.20141 15.9359 3.91953 15.4783 3.72754C15.0203 3.53544 14.5277 3.43708 14.031 3.4375Z" fill="#BDBDBD" stroke="#252B42" stroke-width="0.625"/>
</svg>
